Coordinates
version=1
nRows=6
nColumns=107
inDegrees=yes

Units are S.I. units (second, meters, Newtons, ...)
If the header above contains a line with 'inDegrees', this indicates whether rotational values are in degrees (yes) or radians (no).

endheader
time	sternoclavicular_r2	sternoclavicular_r3	unrotscap_r3	unrotscap_r2	acromioclavicular_r2	acromioclavicular_r3	acromioclavicular_r1	unrothum_r1	unrothum_r3	unrothum_r2	elv_angle	shoulder_elv	shoulder1_r2	shoulder_rot	elbow_flexion	pro_sup	deviation	flexion	proximal_distal_r1	proximal_distal_r3	cmc_flexion	cmc_abduction	mp_flexion	ip_flexion	mcp2_flexion	mcp2_abduction	pm2_flexion	md2_flexion	mcp3_flexion	mcp3_abduction	pm3_flexion	md3_flexion	mcp4_flexion	mcp4_abduction	pm4_flexion	md4_flexion	mcp5_flexion	mcp5_abduction	pm5_flexion	md5_flexion	bicpt_tx	bicpt_ty	bicpt_tz	bicpt2_tx	bicpt2_ty	bicpt2_tz	ptpt_tx	ptpt_ty	ptpt_tz	FCUpt_tx	FCUpt_ty	FCUpt_tz	EDCpt_tx	EDCpt_ty	EDCpt_tz	APLpt_tx	APLpt_ty	APLpt_tz	FPLpt_tx	FPLpt_ty	FPLpt_tz	FPLpt2_tx	FPLpt2_ty	FPLpt2_tz	PEC1pt2_tx	PEC1pt2_ty	PEC1pt2_tz	PEC1pt3_tx	PEC1pt3_ty	PEC1pt3_tz	PEC2pt2_tx	PEC2pt2_ty	PEC2pt2_tz	PEC2pt3_tx	PEC2pt3_ty	PEC2pt3_tz	PEC3pt2_tx	PEC3pt2_ty	PEC3pt2_tz	PEC3pt3_tx	PEC3pt3_ty	PEC3pt3_tz	DELT2pt2a_tx	DELT2pt2a_ty	DELT2pt2a_tz	DELT2pt2_tx	DELT2pt2_ty	DELT2pt2_tz	LAT1pt2_tx	LAT1pt2_ty	LAT1pt2_tz	LAT1pt3_tx	LAT1pt3_ty	LAT1pt3_tz	LAT2pt2_tx	LAT2pt2_ty	LAT2pt2_tz	LAT2pt3_tx	LAT2pt3_ty	LAT2pt3_tz	LAT3pt2_tx	LAT3pt2_ty	LAT3pt2_tz	LAT3pt3_tx	LAT3pt3_ty	LAT3pt3_tz
      1.03333333	     -0.31351072	      0.13278835	     -0.13278835	      0.31351072	     -0.06347954	      0.51301935	      0.23059867	     -0.23059867	     -0.51301935	      0.06347954	    100.98942562	     74.22645081	     -1.76259799	    -36.36448468	     31.86874827	     84.77474417	      0.34603167	     -0.52813211	      0.37160737	     -0.26406605	     41.95034518	    -22.67806278	      9.99869528	      8.51694425	     89.28961633	     13.29462781	     75.06157724	     87.47565701	     93.76865450	      0.65729436	     78.07303122	     55.06193854	     91.25216021	    -13.65893963	     89.40177245	     41.65734642	     97.66675645	    -14.31773791	     89.36914561	      5.44591604	      0.00095412	     -0.03125265	     -0.00488835	      0.01436484	     -0.01885730	     -0.00128481	      0.00128610	     -0.06895034	     -0.00687906	      0.01259748	     -0.18227901	      0.00005061	     -0.01017295	      0.00351101	     -0.00071828	      0.00030677	      0.00012271	      0.00061354	      0.00039266	      0.00117799	      0.00066262	     -0.00000746	     -0.00007107	     -0.00008529	      0.00243298	      0.00853605	      0.00593812	     -0.00795873	      0.01921642	     -0.01822673	      0.00243298	      0.00853605	      0.00593812	      0.00053608	      0.01781436	     -0.00936079	      0.00387379	      0.00474679	      0.01578353	      0.00000000	      0.00736574	      0.00000000	     -0.00696904	     -0.03220606	     -0.00607097	      0.02142849	     -0.00097964	     -0.01082843	     -0.00086598	      0.01451541	     -0.00593812	      0.00239174	      0.02094837	     -0.01731952	     -0.00581441	      0.01257727	     -0.00531957	     -0.01212366	      0.02655660	     -0.02973184	     -0.02276280	      0.01406180	     -0.00713399	     -0.01509272	      0.03068029	     -0.03715449
      1.06666667	     -0.31379865	      0.13291030	     -0.13291030	      0.31379865	     -0.06353784	      0.51349050	      0.23081045	     -0.23081045	     -0.51349050	      0.06353784	    101.12458485	     74.29461963	     -1.76495696	    -36.47133312	     31.47633029	     84.30122565	      0.33914318	     -0.57074212	      0.36612196	     -0.28537106	     42.00801750	    -22.65640376	      9.63344511	      8.98936810	     89.87200746	     13.31079180	     74.47680464	     86.90851449	     94.34275982	      0.65637199	     77.53085811	     55.31394779	     91.79442164	    -13.67504008	     89.24385307	     41.46296366	     98.27470875	    -14.31896505	     89.21719475	      5.45181867	      0.00094114	     -0.03120767	     -0.00488110	      0.01441231	     -0.01875070	     -0.00136499	      0.00132109	     -0.06892772	     -0.00684092	      0.01254328	     -0.18229487	      0.00003806	     -0.01011612	      0.00348522	     -0.00070343	      0.00031119	      0.00012448	      0.00062238	      0.00039832	      0.00119496	      0.00067217	     -0.00000735	     -0.00006983	     -0.00008379	      0.00243521	      0.00854389	      0.00594357	     -0.00796604	      0.01923407	     -0.01824347	      0.00243521	      0.00854389	      0.00594357	      0.00053657	      0.01783072	     -0.00936938	      0.00387642	      0.00475115	      0.01579016	      0.00000000	      0.00737936	      0.00000000	     -0.00697545	     -0.03223564	     -0.00608228	      0.02146715	     -0.00098345	     -0.01088765	     -0.00086677	      0.01452874	     -0.00594357	      0.00239394	      0.02096761	     -0.01733543	     -0.00581975	      0.01258882	     -0.00532445	     -0.01213480	      0.02658099	     -0.02975915	     -0.02278370	      0.01407471	     -0.00714054	     -0.01510659	      0.03070847	     -0.03718862
      1.10000000	     -0.31383855	      0.13292720	     -0.13292720	      0.31383855	     -0.06354592	      0.51355580	      0.23083980	     -0.23083980	     -0.51355580	      0.06354592	    101.12735431	     74.30406740	     -1.76500530	    -36.47300277	     31.48151112	     84.30052802	      0.33915394	     -0.57074604	      0.36613055	     -0.28537302	     42.00768041	    -22.65690632	      9.63312064	      8.98922309	     89.87162245	     13.31082648	     74.47705987	     86.90867992	     94.34211277	      0.65644780	     77.53096612	     55.31398559	     91.79379153	    -13.67498655	     89.24383545	     41.46299705	     98.27466999	    -14.31891338	     89.21731732	      5.45182997	      0.00094131	     -0.03120826	     -0.00488120	      0.01441227	     -0.01875211	     -0.00136505	      0.00132114	     -0.06892768	     -0.00684086	      0.01254322	     -0.18229488	      0.00003808	     -0.01011604	      0.00348520	     -0.00070343	      0.00031115	      0.00012446	      0.00062230	      0.00039827	      0.00119482	      0.00067209	     -0.00000735	     -0.00006983	     -0.00008380	      0.00243552	      0.00854497	      0.00594433	     -0.00796705	      0.01923651	     -0.01824579	      0.00243552	      0.00854497	      0.00594433	      0.00053664	      0.01783299	     -0.00937058	      0.00387678	      0.00475175	      0.01579107	      0.00000000	      0.00738125	      0.00000000	     -0.00697633	     -0.03223974	     -0.00608385	      0.02146727	     -0.00098352	     -0.01088893	     -0.00086688	      0.01453059	     -0.00594433	      0.00239424	      0.02097028	     -0.01733763	     -0.00582049	      0.01259042	     -0.00532513	     -0.01213634	      0.02658437	     -0.02976293	     -0.02278660	      0.01407650	     -0.00714145	     -0.01510851	      0.03071237	     -0.03719335
      1.13333333	     -0.31260830	      0.13240612	     -0.13240612	      0.31260830	     -0.06329682	      0.51154265	      0.22993490	     -0.22993490	     -0.51154265	      0.06329682	    101.33887708	     74.01279462	     -1.76869707	    -37.72674814	     31.77639479	     84.98932087	      0.32689432	     -0.58566333	      0.35617621	     -0.29283167	     41.84934079	    -22.72561624	      9.20336793	      8.80356976	     89.09869017	     13.30238800	     75.28982609	     86.90967825	     93.66508149	      0.71854719	     78.05490285	     55.37296714	     90.96290967	    -13.65291239	     89.84663938	     41.65430245	     97.34159700	    -14.31645399	     89.94989770	      5.47125008	      0.00095106	     -0.03124206	     -0.00488664	      0.01434321	     -0.01883221	     -0.00124840	      0.00127025	     -0.06896059	     -0.00689635	      0.01262206	     -0.18227182	      0.00005634	     -0.01019869	      0.00352271	     -0.00072504	      0.00031201	      0.00012480	      0.00062401	      0.00039937	      0.00119810	      0.00067393	     -0.00000765	     -0.00007325	     -0.00008790	      0.00242598	      0.00851148	      0.00592103	     -0.00793582	      0.01916111	     -0.01817427	      0.00242598	      0.00851148	      0.00592103	      0.00053454	      0.01776309	     -0.00933384	      0.00386554	      0.00473313	      0.01576270	      0.00000000	      0.00732313	      0.00000000	     -0.00694898	     -0.03211336	     -0.00603557	      0.02190400	     -0.00102851	     -0.01159611	     -0.00086348	      0.01447363	     -0.00592103	      0.00238486	      0.02088807	     -0.01726967	     -0.00579767	      0.01254107	     -0.00530425	     -0.01208877	      0.02648016	     -0.02964626	     -0.02269728	      0.01402132	     -0.00711346	     -0.01504928	      0.03059198	     -0.03704755
      1.16666667	     -0.31265558	      0.13242615	     -0.13242615	      0.31265558	     -0.06330640	      0.51162002	      0.22996968	     -0.22996968	     -0.51162002	      0.06330640	    101.33855625	     74.02398849	     -1.76869147	    -37.72921690	     31.78044382	     84.98882080	      0.32691452	     -0.58567081	      0.35619264	     -0.29283540	     41.84924389	    -22.72597363	      9.20329683	      8.80355767	     89.09797245	     13.30240823	     75.28972166	     86.90973099	     93.66478856	      0.71849769	     78.05478531	     55.37291404	     90.96234072	    -13.65282270	     89.84654451	     41.65428512	     97.34247119	    -14.31638116	     89.95034110	      5.47125912	      0.00095120	     -0.03124252	     -0.00488672	      0.01434326	     -0.01883331	     -0.00124849	      0.00127029	     -0.06896057	     -0.00689631	      0.01262200	     -0.18227183	      0.00005633	     -0.01019863	      0.00352268	     -0.00072503	      0.00031197	      0.00012479	      0.00062394	      0.00039932	      0.00119796	      0.00067385	     -0.00000765	     -0.00007325	     -0.00008790	      0.00242634	      0.00851277	      0.00592192	     -0.00793702	      0.01916400	     -0.01817702	      0.00242634	      0.00851277	      0.00592192	      0.00053462	      0.01776577	     -0.00933526	      0.00386597	      0.00473384	      0.01576380	      0.00000000	      0.00732536	      0.00000000	     -0.00695004	     -0.03211821	     -0.00603742	      0.02190484	     -0.00102859	     -0.01159751	     -0.00086361	      0.01447581	     -0.00592192	      0.00238522	      0.02089123	     -0.01727228	     -0.00579855	      0.01254296	     -0.00530506	     -0.01209059	      0.02648416	     -0.02965074	     -0.02270071	      0.01402345	     -0.00711453	     -0.01505156	      0.03059661	     -0.03705315
      1.20000000	     -0.31683182	      0.13419501	     -0.13419501	      0.31683182	     -0.06415200	      0.51845389	      0.23304146	     -0.23304146	     -0.51845389	      0.06415200	    100.46800225	     75.01275068	     -1.75349743	    -33.18402213	     30.63533262	     79.65125820	      0.32190837	     -0.66910402	      0.35205724	     -0.33455201	     41.34664417	    -22.86105087	      8.77436526	      8.15534150	     89.41593419	     13.16435875	     75.86828614	     87.92919670	     94.09290721	      0.19560538	     78.55346996	     56.64352028	     91.89177977	    -13.71672765	     89.97614896	     41.42098034	     99.68996082	    -14.32623506	     89.52133515	      5.49041693	      0.00091332	     -0.03111128	     -0.00486557	      0.01485008	     -0.01852224	     -0.00213500	      0.00166467	     -0.06870555	     -0.00646634	      0.01201490	     -0.18244701	     -0.00007589	     -0.00955813	      0.00323584	     -0.00056428	      0.00030966	      0.00012386	      0.00061932	      0.00039637	      0.00118910	      0.00066887	     -0.00000854	     -0.00008393	     -0.00010071	      0.00245875	      0.00862647	      0.00600103	     -0.00804304	      0.01941998	     -0.01841981	      0.00245875	      0.00862647	      0.00600103	      0.00054176	      0.01800308	     -0.00945995	      0.00390400	      0.00479707	      0.01585923	      0.00000000	      0.00752365	      0.00000000	     -0.00704287	     -0.03254723	     -0.00620212	      0.02022182	     -0.00086716	     -0.00910875	     -0.00087515	      0.01466917	     -0.00600103	      0.00241708	      0.02117028	     -0.01750299	     -0.00587600	      0.01271050	     -0.00537592	     -0.01225209	      0.02683792	     -0.03004680	     -0.02300393	      0.01421076	     -0.00720956	     -0.01525261	      0.03100530	     -0.03754808
